<?xml version="1.0" encoding="utf-8" ?>
<svg xmlns="http://www.w3.org/2000/svg" xmlns:xlink="http://www.w3.org/1999/xlink" width="1024" height="1024">
	<path fill="#FEFEFE" d="M0 0L1024 0L1024 1024L0 1024L0 0Z"/>
	<path fill="#4A6F85" d="M190.257 25.23C210.282 24.6862 230.419 25.0437 250.455 25.0649L354.391 25.1147L658.828 25.077L781.411 25.0816L818.715 24.9739C831.28 24.9474 843.912 24.7433 856.361 26.7342Q859.229 27.1957 862.079 27.759Q864.929 28.3223 867.758 28.9867Q870.586 29.6512 873.389 30.4159Q876.191 31.1806 878.965 32.0446Q881.739 32.9086 884.48 33.8708Q887.221 34.833 889.926 35.8921Q892.632 36.9513 895.297 38.1061Q897.963 39.261 900.586 40.51Q903.209 41.759 905.786 43.1006Q908.363 44.4422 910.89 45.8746Q913.418 47.3071 915.893 48.8287Q918.367 50.3502 920.786 51.9589Q923.206 53.5676 925.566 55.2615Q927.926 56.9553 930.225 58.732Q932.523 60.5088 934.757 62.3663Q936.991 64.2238 939.157 66.1596C972.337 96.193 992.7 135.783 994.779 180.726C995.446 195.143 994.978 209.762 994.967 224.199L995.039 302.924L995.389 601.914L995.321 756.163L995.554 808.257C995.576 823.076 996.027 837.833 993.605 852.517Q993.094 855.608 992.474 858.679Q991.853 861.75 991.125 864.797Q990.396 867.845 989.559 870.864Q988.723 873.883 987.78 876.871Q986.837 879.859 985.788 882.812Q984.74 885.764 983.587 888.678Q982.435 891.591 981.18 894.462Q979.925 897.332 978.569 900.157Q977.212 902.981 975.757 905.756Q974.301 908.53 972.748 911.251Q971.195 913.973 969.547 916.637Q967.898 919.301 966.156 921.905Q964.414 924.51 962.581 927.05Q960.748 929.591 958.826 932.065Q956.903 934.54 954.895 936.944Q952.886 939.348 950.793 941.68C921.082 974.167 880.696 991.566 837.042 993.418L359.959 993.552L240.536 993.43L203.426 993.507C190.485 993.522 177.555 993.757 164.75 991.526Q161.866 991.013 159.002 990.396Q156.138 989.779 153.299 989.059Q150.46 988.338 147.648 987.515Q144.837 986.692 142.057 985.767Q139.278 984.843 136.533 983.818Q133.789 982.793 131.084 981.669Q128.379 980.545 125.716 979.323Q123.054 978.102 120.437 976.784Q117.821 975.467 115.254 974.056Q112.687 972.644 110.173 971.14Q107.659 969.636 105.201 968.042Q102.743 966.448 100.345 964.766Q97.947 963.084 95.6114 961.316Q93.2758 959.547 91.006 957.696Q88.7362 955.844 86.5351 953.911Q84.334 951.978 82.2046 949.966Q80.7419 948.587 79.3132 947.173Q77.8845 945.759 76.4908 944.311Q75.097 942.862 73.739 941.38Q72.381 939.898 71.0595 938.384Q69.7381 936.869 68.4539 935.323Q67.1698 933.776 65.9238 932.199Q64.6778 930.621 63.4706 929.014Q62.2634 927.407 61.0958 925.771Q59.9282 924.134 58.8009 922.47Q57.6735 920.806 56.5871 919.115Q55.5007 917.423 54.4558 915.706Q53.411 913.989 52.4083 912.247Q51.4057 910.505 50.4458 908.739Q49.4859 906.972 48.5694 905.183Q47.6529 903.394 46.7804 901.583Q45.9078 899.773 45.0796 897.941Q44.2515 896.11 43.4682 894.258Q42.685 892.407 41.9471 890.537Q41.2093 888.668 40.5173 886.78Q39.8252 884.893 39.1795 882.99Q38.5337 881.086 37.9345 879.167Q37.3354 877.249 36.7832 875.316Q36.231 873.383 35.7261 871.437Q35.2213 869.492 34.764 867.534Q34.3067 865.577 33.8974 863.609Q33.488 861.641 33.1267 859.663Q32.7654 857.686 32.4525 855.7Q32.1396 853.715 31.8752 851.722Q31.6108 849.729 31.3951 847.731Q31.1794 845.733 31.0125 843.729Q30.8456 841.726 30.7276 839.72Q30.6096 837.713 30.5406 835.704C30.0153 818.431 30.393 801.05 30.3814 783.764L30.3668 686.676L30.3897 393.206L30.3422 247.549L30.1812 203.793C30.1274 189.456 29.7965 175.203 32.1892 161.002Q32.6949 158.096 33.3049 155.211Q33.9148 152.326 34.6283 149.464Q35.3417 146.602 36.1577 143.768Q36.9737 140.934 37.8912 138.131Q38.8087 135.329 39.8265 132.561Q40.8443 129.793 41.9611 127.063Q43.0779 124.333 44.2922 121.646Q45.5065 118.958 46.8168 116.316Q48.1271 113.674 49.5317 111.081Q50.9362 108.488 52.4332 105.947Q53.9302 103.406 55.5177 100.92Q57.1052 98.4346 58.7812 96.0079Q60.4571 93.5811 62.2194 91.2163Q63.9816 88.8515 65.8278 86.5517Q67.6741 84.2519 69.6019 82.02Q71.5297 79.7881 73.5366 77.6271C104.556 44.8592 145.183 26.3974 190.257 25.23Z"/>
	<path fill="#053E5B" d="M237.046 841.772C238.047 842.87 238.753 843.385 238.722 844.989C238.67 847.782 237.628 853.086 235.693 855.14L234.746 854.546L234.283 851.843C234.989 848.446 236.073 845.103 237.046 841.772Z"/>
	<path fill="#2F566E" d="M206.13 857.507C206.168 857.364 206.199 857.22 206.243 857.079C207.216 853.932 209.019 851.48 212.07 850.085C218.519 847.136 227.895 849.696 234.283 851.843L234.746 854.546C230.554 851.414 224.141 850.675 219.079 851.457C212.875 852.415 210.83 855.796 206.13 857.507Z"/>
	<path fill="#FEFEFE" d="M567.845 748.239L574.549 748.213Q575.115 779.583 575.062 810.958Q589.776 810.789 604.489 810.971L604.474 821.034L596.25 821.046L558.955 821.029L559.057 748.507L567.845 748.239Z"/>
	<path fill="#FEFEFE" d="M483.949 838.053C504.398 837.787 524.992 838.607 545.461 838.725L545.439 850.051L523.605 850.07C523.294 865.945 523.556 881.869 523.565 897.75L523.53 918.831L506.686 918.833C506.524 895.938 506.244 872.907 506.918 850.024L483.493 850.187C483.545 846.129 483.68 842.103 483.949 838.053Z"/>
	<path fill="#FEFEFE" d="M190.655 903.054C194.71 904.909 198.705 906.783 203.076 907.763C208.123 908.894 214.213 909.185 218.668 906.199C221.134 904.546 222.99 901.603 223.43 898.66C225.15 887.157 200.394 882.636 193.147 871.7C190.015 866.973 189.214 860.899 190.537 855.428C191.911 849.748 194.996 845.391 200.041 842.355C209.874 836.438 223.818 836.633 234.509 839.838C235.924 840.262 236.353 840.468 237.046 841.772C236.073 845.103 234.989 848.446 234.283 851.843C227.895 849.696 218.519 847.136 212.07 850.085C209.019 851.48 207.216 853.932 206.243 857.079C206.199 857.22 206.168 857.364 206.13 857.507C205.993 858.836 206.075 860.317 206.504 861.586C208.795 868.361 217.129 870.782 222.816 873.762C230.067 877.561 236.712 882.14 239.133 890.468C240.746 896.016 240.104 902.204 237.19 907.21C233.599 913.382 227.079 917.363 220.294 919.137C209.47 921.967 198.312 920.142 188.799 914.499C189.528 910.71 190.068 906.868 190.655 903.054Z"/>
	<path fill="#FEFEFE" d="M466.164 748.236L478.389 748.167Q478.195 763.206 478.238 778.245C478.238 786.783 479.033 796.228 476.807 804.521Q476.468 805.833 475.961 807.09Q475.453 808.347 474.785 809.526Q474.118 810.706 473.302 811.788Q472.486 812.87 471.535 813.836C465.834 819.633 457.524 821.647 449.64 821.737C441.68 821.827 433.542 819.963 427.789 814.064C418.048 804.075 421.214 783.194 421.414 770.311L421.477 748.472C426.61 748.366 431.759 748.474 436.894 748.498C436.973 759.616 435.168 798.469 439.566 805.911C441.169 808.624 444.008 810.404 447.044 811.075C450.861 811.919 456.134 811.653 459.399 809.3C462.009 807.419 463.534 804.434 464.26 801.359C465.324 796.855 465.062 791.999 465.048 787.394L464.934 762.838C464.913 758.276 464.518 753.325 465.271 748.835L466.164 748.236Z"/>
	<path fill="#FEFEFE" d="M555.539 838.575L604.126 838.582C604.182 842.364 604.142 846.153 604.146 849.936Q588.077 850.137 572.006 850.066L571.982 870.947L600.494 870.987L600.464 882.141L571.973 882.229L571.983 892.75L571.986 907.616C583.026 908.264 594.306 907.814 605.374 907.754L605.233 918.687L555.513 918.964L555.539 838.575Z"/>
	<path fill="#FEFEFE" d="M701.085 838.254C717.479 837.71 734.035 838.19 750.445 838.182L750.39 848.984L717.474 849.465L717.437 871.563C726.98 871.327 736.569 871.535 746.117 871.551L746.144 882.558C736.6 882.739 727.042 882.704 717.495 882.766L717.511 891.25L717.581 907.969L751.505 907.843L751.443 918.794L700.95 918.975L700.884 867.202C700.87 857.622 700.436 847.804 701.085 838.254Z"/>
	<path fill="#FEFEFE" d="M301.448 838.637L317.513 838.596L317.502 893.506C317.508 900.939 316.656 909.82 317.504 917.051C317.522 917.205 317.552 917.358 317.577 917.511L317.297 917.667L317.338 918.492C316.456 919.299 314.817 918.993 313.625 919.019L301.048 919.009Q300.925 900.799 301.476 882.597C290.792 882.47 280.09 882.593 269.404 882.598L269.255 919.072Q261.256 919.16 253.259 918.984C252.573 909.505 253.078 899.665 253.149 890.154L253.558 838.679C258.731 838.553 263.919 838.645 269.094 838.661C269.304 849.352 269.055 860.102 269.008 870.799C279.653 870.205 290.617 870.546 301.277 870.779C300.973 860.079 301.303 849.34 301.448 838.637Z"/>
	<path fill="#FEFEFE" d="M493.02 748.029C503.945 747.937 521.107 746.421 531.301 749.379C536.46 750.876 541.099 753.837 543.601 758.724C546.14 763.681 546.323 771.046 544.612 776.352C542.39 783.243 536.672 786.438 530.594 789.42C537.742 799.531 545.034 810.108 551.215 820.831C545.492 821.036 539.703 820.861 533.974 820.847L533.017 820.547C527.41 812.586 520.546 800.138 517.033 791.126L508.514 791.081L508.208 821.187L492.895 821.245Q493.175 784.637 493.02 748.029Z"/>
	<path fill="#4A6F85" d="M510.281 757.644Q511.406 757.578 512.533 757.544C517.702 757.398 522.715 758.016 526.56 761.88C528.583 763.913 529.928 766.666 529.784 769.58C529.595 773.41 527.303 776.657 524.665 779.222C519.745 782.332 514.46 781.93 508.886 781.952C508.878 775.013 508.586 767.927 508.944 761.004C509.03 759.353 509.067 758.781 510.281 757.644Z"/>
	<path fill="#FEFEFE" d="M672.68 838.094L684.504 838.017L684.471 919.011Q676.465 919.175 668.458 919.073C663.301 911.934 658.932 903.778 654.302 896.269Q641.974 876.564 629.967 856.661Q630.281 885.718 630.098 914.776C630.115 915.707 630.281 917.71 629.527 918.327C628.402 919.249 626.826 919.352 625.434 919.271C623.021 919.131 620.614 919.102 618.198 919.062L618.44 838.624C624.88 838.562 631.326 838.63 637.767 838.64C649.679 857.087 663.009 876.537 673.102 895.896C672.111 889.255 672.479 882.124 672.454 875.403Q672.444 856.748 672.68 838.094Z"/>
	<path fill="#FEFEFE" d="M444.382 838.233C450.232 838.22 456.109 838.427 461.722 840.224C467.307 842.012 472.419 845.44 475.052 850.824C477.579 855.991 477.701 862.319 475.717 867.682C472.74 875.728 466.201 879.128 458.831 882.333L484.073 918.834C477.875 918.989 471.634 918.789 465.432 918.726C462.321 914.34 459.492 909.759 456.608 905.222C452.214 898.71 447.692 892.247 444.165 885.212C441.354 885.076 438.517 885.106 435.701 885.071C435.506 896.356 435.521 907.649 435.462 918.936L418.621 918.954C418.291 892.182 418.57 865.361 418.683 838.585Q431.534 838.51 444.382 838.233Z"/>
	<path fill="#4A6F85" d="M435.916 849.737C443.134 849.528 451.606 848.902 457.406 854.075C459.334 855.795 460.799 858.153 460.92 860.784C461.098 864.618 458.579 868.726 456.063 871.403C449.814 875.749 442.877 875.08 435.662 875.041C435.398 871.012 434.371 852.625 435.916 849.737Z"/>
	<path fill="#FEFEFE" d="M765.689 838.097C777.733 837.997 799.461 836.292 810.429 840.464C815.805 842.508 820.482 846.014 822.781 851.422C825 856.641 824.614 863.11 822.432 868.279C819.292 875.721 812.829 878.884 805.834 881.829C814.421 893.748 823.016 905.871 830.263 918.664C824.343 919.151 818.314 918.929 812.375 918.928L810.422 918.73C806.311 914.511 794.065 891.525 790.559 885.158C787.713 885.015 784.842 885.022 781.992 884.966Q782.056 901.859 781.742 918.75L765.548 918.703C765.173 891.862 765.694 864.947 765.689 838.097Z"/>
	<path fill="#4A6F85" d="M784.67 848.176C787.858 848.022 791.168 848.09 794.338 848.472C797.977 848.91 801.831 850.124 804.11 853.179C806.138 855.898 806.597 859.585 806.014 862.857C805.265 867.062 803.369 869.77 799.962 872.237C794.274 875.479 788.58 875.357 782.27 875.203C782.197 870.245 781.001 852.886 782.623 849.189C782.969 848.4 783.905 848.411 784.67 848.176Z"/>
	<path fill="#FEFEFE" d="M363.134 837.675C372.167 836.487 382.333 838.289 389.839 843.618C398.187 849.545 402.892 858.774 404.471 868.731C406.374 880.73 404.66 895.251 397.318 905.262C391.444 913.271 383.249 917.999 373.494 919.445C363.269 920.871 353.465 919.353 344.993 913.131C336.582 906.954 332.379 897.239 330.954 887.122C329.223 874.836 331.473 860.37 339.138 850.304C345.112 842.459 353.626 839.023 363.134 837.675Z"/>
	<path fill="#4A6F85" d="M363.206 849.107C367.688 848.6 371.888 848.493 375.974 850.692C380.743 853.257 383.637 858.041 385.245 863.07C388.573 873.478 388.523 889.719 383.228 899.51C380.699 904.186 377.507 906.846 372.472 908.419C368.148 909.01 364.033 909.036 360.024 907.027C354.979 904.5 351.894 899.549 350.272 894.296C347.073 883.939 347.094 867.413 352.388 857.712C354.953 853.011 358.185 850.681 363.206 849.107Z"/>
	<path fill="#FEFEFE" d="M666.428 114.314L774.71 114.394L804.12 114.416C811.59 114.424 819.447 113.894 826.783 115.447C835.538 117.301 844.08 121.969 850.481 128.203C864.1 141.468 865.044 155.214 865.168 173.125L865.295 192.029L159.087 191.985C158.758 186.149 158.818 180.253 158.738 174.407C158.538 159.791 158.5 146.494 167.459 134.091C175.275 123.271 187.747 116.694 200.765 114.652C205.563 113.998 210.905 114.373 215.763 114.397L242.947 114.489L340.07 114.45L649.061 114.504L649.355 175.999L666.437 176.002L666.428 114.314Z"/>
	<path fill="#4A6F85" d="M796.325 138.569C802.57 138.335 817.102 137.465 822.566 138.776C824.008 139.123 824.347 139.319 825.047 140.648C827.101 144.551 827.393 165.457 825.985 169.87C825.338 171.899 823.959 172.623 822.162 173.456C814.631 173.472 804.929 174.466 797.658 173.083C795.895 172.747 794.194 172.328 793.292 170.676C791.142 166.741 791.322 146.253 792.881 141.817C793.535 139.955 794.68 139.396 796.325 138.569Z"/>
	<path fill="#FEFEFE" d="M801.63 147.141C806.752 146.989 811.895 147.086 817.02 147.091L817.003 164.496L801.669 164.527C801.563 158.737 801.632 152.933 801.63 147.141Z"/>
	<path fill="#4A6F85" d="M749.589 138.213C756.812 138.123 767.271 136.772 773.888 139.49C775.002 141.626 775.542 143.759 775.811 146.155C776.359 151.037 777.592 168.529 774.437 171.798C772.847 173.447 771.209 173.384 769.063 173.449C762.203 173.25 748.634 174.919 742.859 171.602C742.001 169.99 741.654 168.476 741.431 166.663C740.935 162.624 740.383 142.53 742.743 140.025C744.416 138.25 747.316 138.371 749.589 138.213Z"/>
	<path fill="#FEFEFE" d="M751.708 147.213Q759.036 146.938 766.364 147.229C766.44 150.264 767.217 162.76 765.861 164.516L750.969 164.448C750.916 161.006 749.821 149.519 751.708 147.213Z"/>
	<path fill="#4A6F85" d="M695.962 138.145C703.444 138.059 716.177 136.639 723.057 139.242C723.792 140.154 724.183 140.925 724.517 142.058C725.878 146.681 726.507 166.73 724.261 171.068C722.761 172.374 721.335 172.765 719.448 173.317C714.861 173.565 696.934 174.513 693.269 172.768C692.37 172.34 691.755 170.956 691.423 170.047C689.745 165.448 689.049 144.669 691.511 140.673C692.653 138.821 693.986 138.547 695.962 138.145Z"/>
	<path fill="#FEFEFE" d="M700.7 146.896Q708.151 146.822 715.602 146.922L715.582 164.525L700.56 164.539Q700.429 155.716 700.7 146.896Z"/>
	<path fill="#FEFEFE" d="M265.619 208.247L865.296 208.077L865.137 519.07L865.108 603.513C865.109 619.456 866.401 636.685 863.836 652.409C861.27 668.143 853.206 683.359 841.985 694.639C818.087 718.666 791.892 716.239 760.902 716.186L406.235 716.128L289.96 716.138C271.001 716.13 251.717 716.941 232.795 716.089Q230.856 716.009 228.922 715.834Q226.989 715.659 225.067 715.389Q223.145 715.12 221.238 714.757Q219.331 714.394 217.444 713.938Q215.558 713.481 213.695 712.933Q211.833 712.385 210 711.747Q208.167 711.109 206.368 710.381Q204.568 709.654 202.806 708.839Q201.044 708.024 199.325 707.124Q197.605 706.224 195.931 705.241Q194.257 704.258 192.634 703.194Q191.01 702.13 189.441 700.988Q187.871 699.846 186.359 698.629Q184.848 697.411 183.397 696.121Q181.947 694.831 180.562 693.471Q179.176 692.112 177.859 690.686C168.324 680.211 161.815 665.794 159.834 651.788C158.708 643.827 158.959 635.7 158.965 627.68L158.971 597.096L158.975 486.032L158.862 315.081L158.822 250.667C158.857 236.619 158.694 222.518 159.388 208.485L265.619 208.247Z"/>
	<path fill="#053E5B" d="M290.348 448.561C291.298 449.552 291.618 451.061 292.081 452.344C289.977 455.472 286.995 464.475 284.712 466.152L283.979 465.268Q281.558 458.957 279.031 452.688C282.768 451.234 286.579 449.932 290.348 448.561Z"/>
	<path fill="#053E5B" d="M376.102 475.949C380.664 477.996 385.015 479.758 389.901 480.902C386.946 483.533 383.741 485.828 380.868 488.575C372.285 496.781 364.584 505.194 354.819 512.111C351.37 514.282 347.834 516.224 344.241 518.144C358.892 506.891 367.987 492.235 376.102 475.949Z"/>
	<path fill="#053E5B" d="M344.227 467.972Q353.567 470.166 362.88 472.47C359.778 479.722 356.221 486.507 351.825 493.059C349.247 496.519 346.633 499.849 343.754 503.065C344.163 491.396 344.025 479.653 344.227 467.972Z"/>
	<path fill="#053E5B" d="M444.332 295.341C448.908 298.878 452.254 306.094 454.885 311.143C443.42 320.146 431.371 328.415 419.914 337.447C418.933 338.137 419.03 338.265 417.751 338.272C414.938 332.701 412.645 322.022 410.649 315.606C422.356 311.492 434.565 302.973 444.332 295.341Z"/>
	<path fill="#053E5B" d="M365.838 245.855C393.147 251.769 417.459 265.633 437.032 285.47C433.485 288.398 429.62 290.933 425.835 293.542C419.819 297.449 413.513 300.766 407.11 303.981Q406.281 301.89 405.39 299.824Q404.499 297.759 403.547 295.721Q402.594 293.683 401.58 291.675Q400.567 289.667 399.494 287.69Q398.421 285.713 397.289 283.769Q396.156 281.825 394.967 279.916Q393.777 278.007 392.53 276.134Q391.283 274.262 389.981 272.428Q388.679 270.594 387.322 268.799Q385.965 267.005 384.555 265.253Q383.145 263.5 381.683 261.79Q380.221 260.081 378.708 258.416Q377.195 256.751 375.634 255.132Q374.072 253.513 372.462 251.942Q370.852 250.371 369.196 248.849Q367.539 247.327 365.838 245.855Z"/>
	<path fill="#053E5B" d="M308.265 459.92C312.763 459.888 325.535 464.126 331.371 464.975C331.788 482.704 331.518 500.488 331.524 518.224Q325.652 513.865 319.845 509.421C308.257 500.57 293.378 485.114 288.117 471.385C294.719 467.349 301.919 464.375 308.265 459.92Z"/>
	<path fill="#053E5B" d="M267.499 458.494C268.98 459.996 274.495 473.929 276.015 476.833C284.61 493.247 297.06 506.984 310.97 519.011C303.191 517.532 295.772 515.528 288.377 512.67C272.93 505.998 246.551 491.851 237.355 477.352C246.859 469.701 256.636 463.964 267.499 458.494Z"/>
	<path fill="#053E5B" d="M308.588 246.104L309.561 246.156C309.442 246.812 300.234 255.245 298.827 256.811C286.511 270.509 275.592 288.527 269.118 305.769C261.749 303.318 254.865 300.177 247.936 296.711C243.784 294.581 240.048 291.846 236.359 289.009C253.787 267.805 281.669 251.62 308.588 246.104Z"/>
	<path fill="#053E5B" d="M330.98 245.397C331.071 245.482 331.18 245.552 331.254 245.652C332.74 247.676 331.559 310.589 331.53 318.517C316.84 318.345 302.474 315.798 288.265 312.25C285.593 311.471 282.924 310.8 280.211 310.183C292.041 283.4 306.34 262.181 330.98 245.397Z"/>
	<path fill="#053E5B" d="M343.7 245.175C348.998 247.875 353.989 251.776 358.512 255.609C375.53 270.028 386.93 288.076 395.228 308.617C392.911 309.473 390.555 310.235 388.216 311.031C373.525 315.634 359.172 317.313 343.901 318.569C343.934 294.11 343.465 269.629 343.7 245.175Z"/>
	<path fill="#053E5B" d="M267.337 388.579Q309.524 388.865 351.71 388.546C342.685 396.297 332.449 403.116 322.996 410.385C313.524 417.426 303.924 427.037 293.625 432.578C287.912 435.651 281.492 437.617 275.406 439.822C269.845 424.23 267.577 405.044 267.337 388.579Z"/>
	<path fill="#053E5B" d="M396.794 322.033L398.394 322.038C402.148 325.811 404.989 341.766 406.301 347.493C393.903 356.808 381.753 366.48 369.289 375.696C363.856 375.959 358.318 375.786 352.875 375.798L343.531 375.908L343.683 331.207C361.953 330.783 379.276 326.944 396.794 322.033Z"/>
	<path fill="#053E5B" d="M627.696 370.68C642.775 368.968 660.542 375.271 672.839 383.686Q673.611 384.203 674.369 384.74Q675.128 385.277 675.873 385.832Q676.618 386.388 677.348 386.962Q678.079 387.536 678.795 388.128Q679.511 388.721 680.212 389.331Q680.913 389.941 681.598 390.568Q682.284 391.196 682.953 391.84Q683.623 392.485 684.276 393.146Q684.929 393.807 685.565 394.484Q686.201 395.161 686.821 395.854Q687.44 396.547 688.041 397.255Q688.643 397.964 689.226 398.687Q689.81 399.41 690.375 400.148Q690.94 400.885 691.486 401.637Q692.033 402.388 692.56 403.154Q693.088 403.919 693.596 404.697Q694.104 405.475 694.592 406.265Q695.081 407.056 695.549 407.858Q696.017 408.661 696.465 409.475Q696.913 410.289 697.341 411.114Q697.768 411.939 698.175 412.775Q698.582 413.61 698.967 414.456Q699.353 415.301 699.717 416.156Q700.081 417.011 700.424 417.875Q700.767 418.738 701.087 419.611Q701.408 420.483 701.707 421.362Q702.006 422.242 702.283 423.129Q702.559 424.017 702.814 424.91Q703.068 425.804 703.3 426.704Q703.532 427.604 703.741 428.509Q703.95 429.415 704.136 430.325Q704.323 431.235 704.486 432.15C706.318 442.144 706.109 461.121 700.241 469.696L698.86 469.742Q690.096 466.987 681.382 464.076C684.408 457.735 685.702 450.395 685.522 443.388C685.148 428.763 678.483 415.174 667.824 405.291C654.323 392.773 640.775 389.851 623.004 390.584C622.989 384.4 622.529 377.758 623.29 371.639C624.434 370.691 626.266 370.808 627.696 370.68Z"/>
	<path fill="#053E5B" d="M276.303 322.779C294.701 327.415 312.457 330.452 331.491 330.715Q331.546 353.256 331.902 375.793L324.097 375.83L267.528 375.758C267.415 358.011 271.078 339.674 276.303 322.779Z"/>
	<path fill="#053E5B" d="M227.78 299.728C232.401 301.248 237.593 305.262 241.937 307.625C249.31 311.637 256.947 315.185 264.596 318.632C259.143 337.857 256.109 356.329 254.354 376.221L236.447 376.038Q218.247 375.95 200.052 376.394C203.166 347.776 209.917 322.855 227.78 299.728Z"/>
	<path fill="#053E5B" d="M526.438 546.576C528.988 546.58 531.546 546.791 533.845 547.992C537.896 550.108 539.301 554.186 540.591 558.252C540.175 559.879 539.778 561.556 539.132 563.109C538.007 565.814 536.313 567.773 533.844 569.327C529.122 572.299 523.606 574.329 518.493 576.575Q506.828 581.791 495.05 586.749L421.112 617.327C419.243 617.411 417.536 617.095 415.851 616.274C411.929 614.364 409.416 609.983 408.069 606.006C407.042 602.972 406.533 599.095 408.248 596.196C409.361 594.313 412.034 593.286 413.952 592.374C420.797 589.118 428.081 586.618 435.073 583.676C454.094 575.673 473.144 567.952 492.325 560.325Q502.286 556.41 512.177 552.323C516.86 550.343 521.517 547.884 526.438 546.576Z"/>
	<path fill="#053E5B" d="M199.645 388.476C217.943 388.876 236.284 388.655 254.587 388.694C255.797 409.27 258.837 425.426 264.038 445.341Q257.414 449.482 250.743 453.547C243.121 458.008 235.812 462.895 228.48 467.809C209.844 444.462 201.97 417.768 199.645 388.476Z"/>
	<path fill="#053E5B" d="M625.871 324.223Q628.907 324.184 631.94 324.293Q634.974 324.403 637.999 324.661Q641.024 324.919 644.033 325.325Q647.041 325.732 650.026 326.285Q653.011 326.838 655.966 327.537Q658.92 328.237 661.836 329.08Q664.753 329.923 667.625 330.908Q670.496 331.893 673.316 333.018C702.547 344.593 727.781 368.571 740.101 397.553C751.321 423.944 753.553 455.533 742.666 482.429L736.374 480.45C732.238 479.115 728.071 478.009 723.864 476.932C728.508 462.64 731.139 448.915 729.55 433.839C726.856 408.264 713.189 383.843 693.234 367.717Q692.219 366.912 691.184 366.132Q690.149 365.352 689.096 364.598Q688.042 363.843 686.971 363.115Q685.899 362.386 684.81 361.684Q683.721 360.981 682.615 360.306Q681.51 359.63 680.388 358.982Q679.266 358.333 678.129 357.712Q676.991 357.091 675.839 356.498Q674.687 355.905 673.521 355.341Q672.355 354.776 671.175 354.24Q669.995 353.703 668.803 353.196Q667.611 352.689 666.406 352.211Q665.202 351.732 663.987 351.284Q662.771 350.835 661.545 350.416Q660.318 349.997 659.082 349.608Q657.846 349.219 656.601 348.861Q655.356 348.502 654.103 348.174Q652.849 347.845 651.588 347.548Q650.327 347.25 649.059 346.983Q647.791 346.716 646.517 346.481Q645.242 346.245 643.963 346.04Q642.683 345.835 641.399 345.662Q640.115 345.488 638.827 345.346Q637.539 345.204 636.248 345.093Q634.957 344.982 633.664 344.903Q632.371 344.824 631.076 344.776Q629.781 344.728 628.485 344.712Q627.189 344.696 625.894 344.711Q624.598 344.726 623.303 344.773Q622.008 344.82 620.715 344.898Q619.421 344.977 618.13 345.087Q616.839 345.197 615.551 345.338L615.534 324.693L625.871 324.223Z"/>
	<path fill="#053E5B" d="M625.174 251.239C641.231 251.315 657.416 252.629 673.035 256.525Q675.427 257.1 677.804 257.735Q680.18 258.369 682.541 259.062Q684.901 259.755 687.244 260.506Q689.587 261.257 691.91 262.066Q694.233 262.874 696.536 263.74Q698.839 264.606 701.119 265.528Q703.4 266.451 705.657 267.429Q707.914 268.408 710.146 269.442Q712.378 270.475 714.584 271.564Q716.79 272.653 718.969 273.796Q721.147 274.939 723.297 276.135Q725.446 277.332 727.566 278.581Q729.685 279.83 731.773 281.131Q733.861 282.432 735.916 283.784Q737.971 285.136 739.992 286.539Q742.013 287.942 743.999 289.394Q745.984 290.846 747.934 292.347Q749.883 293.847 751.794 295.396Q753.706 296.944 755.579 298.539Q757.452 300.134 759.284 301.775Q761.117 303.416 762.909 305.102Q764.701 306.788 766.45 308.517Q768.2 310.247 769.906 312.019Q771.612 313.791 773.274 315.605Q774.936 317.418 776.553 319.273Q778.169 321.127 779.74 323.021Q781.31 324.914 782.833 326.846Q784.356 328.778 785.831 330.747Q787.306 332.716 788.732 334.72Q790.158 336.725 791.534 338.764Q792.909 340.804 794.234 342.876Q795.56 344.949 796.833 347.054Q800.221 352.808 803.229 358.769Q806.238 364.73 808.854 370.873Q811.47 377.017 813.683 383.316Q815.896 389.616 817.697 396.046C824.805 422.229 827.042 456.527 820.457 482.939L812.112 481.538L793.445 478.812C796.765 458.816 797.338 438.133 793.913 418.105Q793.555 416.064 793.147 414.033Q792.739 412.001 792.281 409.98Q791.823 407.96 791.316 405.951Q790.808 403.942 790.252 401.946Q789.695 399.95 789.09 397.968Q788.484 395.987 787.83 394.02Q787.176 392.054 786.474 390.105Q785.772 388.155 785.023 386.224Q784.273 384.292 783.476 382.379Q782.679 380.467 781.835 378.574Q780.992 376.682 780.102 374.81Q779.212 372.939 778.276 371.09Q777.34 369.242 776.36 367.416Q775.379 365.591 774.354 363.791Q773.328 361.99 772.259 360.215Q771.19 358.44 770.077 356.692Q768.965 354.944 767.81 353.224Q766.654 351.504 765.457 349.812Q764.26 348.121 763.022 346.46Q761.784 344.798 760.505 343.168Q759.227 341.537 757.908 339.939Q756.59 338.34 755.233 336.775Q753.875 335.209 752.48 333.677Q751.085 332.145 749.653 330.648Q748.22 329.151 746.751 327.689Q745.282 326.228 743.778 324.803Q742.274 323.378 740.735 321.99Q739.196 320.603 737.624 319.253Q736.051 317.904 734.446 316.594Q732.841 315.283 731.204 314.013Q729.567 312.742 727.9 311.512Q726.232 310.283 724.535 309.094C699.552 291.578 669.06 281.494 638.785 279.171C631.2 278.589 623.429 278.113 615.904 279.415Q615.864 265.478 615.549 251.544L625.174 251.239Z"/>
	<path fill="#053E5B" d="M398.254 551.16C404.054 550.784 409.606 550.71 415.334 551.848C428.988 554.561 441.085 562.038 448.786 573.642C441.359 577.507 433.071 580.261 425.44 583.869C421.326 581.021 417.411 578.699 412.453 577.636Q410.51 577.234 408.534 577.062Q406.557 576.89 404.574 576.952Q402.591 577.013 400.629 577.306Q398.666 577.6 396.752 578.121C391.083 579.649 385.889 582.558 380.561 584.955C375.142 587.393 369.62 589.637 364.145 591.946Q352.559 596.862 340.868 601.52C334.853 603.93 327.962 606.059 322.567 609.679C316.076 614.035 311.956 621.361 310.362 628.895C308.445 637.959 310.468 646.079 315.52 653.693C320.346 660.967 328.269 666.001 336.818 667.612C341.035 668.408 345.462 668.549 349.634 667.434C354.709 666.077 359.787 663.635 364.625 661.586L388.178 651.58C397.301 647.722 420.798 639.168 428.03 634.038C434.745 629.275 438.628 621.895 439.9 613.897C446.739 610.784 453.904 608.168 460.872 605.34L464.984 604.006C465.223 618.947 462.649 633.249 453.582 645.52C450.173 650.136 445.874 654.365 440.958 657.358C431.119 663.351 417.63 667.806 406.868 672.362C392.327 678.517 377.667 685.584 362.799 690.838Q357.759 692.585 352.48 693.346C336.613 695.657 319.351 691.725 306.486 682.011C294.639 673.066 285.838 659.01 283.899 644.225C281.882 628.857 285.653 613.022 295.189 600.705C299.477 595.168 304.728 589.849 310.711 586.147C317.955 581.665 326.421 579.236 334.227 575.891C350.043 569.115 382.775 553.196 398.254 551.16Z"/>
	<path fill="#053E5B" d="M599.321 468.215Q604.81 468.157 610.218 469.102C625.413 471.715 640.208 480.392 649.056 493.129C658.006 506.013 662.135 522.088 659.246 537.622C656.514 552.314 646.943 566.415 634.57 574.721C622.832 582.6 607.821 586.936 594.838 592.48C582.63 597.693 563.346 607.46 551.339 610.228Q548.512 610.858 545.636 611.196Q542.759 611.533 539.863 611.575Q536.967 611.617 534.082 611.363Q531.197 611.108 528.353 610.56C516.16 608.123 503.553 601.126 496.594 590.609C501.551 588.113 518.482 581.989 521.343 579.521C521.502 579.384 521.632 579.217 521.777 579.064L522.262 579.354L522.285 579.19C523.884 580.126 525.519 581.087 527.242 581.778C532.854 584.026 539.535 584.923 545.503 583.746C552.059 582.453 558.63 578.664 564.757 576.035L599.068 561.507C605.207 558.887 611.815 556.483 617.644 553.249Q618.308 552.885 618.953 552.487Q619.598 552.09 620.221 551.661Q620.845 551.231 621.447 550.771Q622.048 550.31 622.625 549.82Q623.203 549.33 623.755 548.811Q624.306 548.292 624.831 547.746Q625.356 547.2 625.853 546.628Q626.349 546.057 626.817 545.46Q627.284 544.864 627.72 544.245Q628.156 543.626 628.561 542.986Q628.965 542.345 629.337 541.685Q629.708 541.025 630.046 540.348Q630.384 539.67 630.687 538.975Q630.99 538.281 631.258 537.573Q631.525 536.864 631.757 536.143Q631.988 535.422 632.183 534.69C634.351 526.749 633.45 518.476 629.266 511.355Q628.847 510.658 628.396 509.982Q627.944 509.307 627.46 508.653Q626.976 508 626.462 507.371Q625.947 506.741 625.403 506.137Q624.859 505.533 624.287 504.956Q623.714 504.379 623.114 503.83Q622.515 503.281 621.89 502.762Q621.264 502.243 620.615 501.754Q619.965 501.265 619.293 500.808Q618.621 500.351 617.927 499.927Q617.234 499.502 616.521 499.112Q615.808 498.721 615.077 498.366Q614.346 498.01 613.599 497.69Q612.852 497.37 612.09 497.086Q611.328 496.802 610.554 496.555Q609.779 496.308 608.994 496.098C605.763 495.266 601.577 494.609 598.289 495.245C586.188 497.585 561.91 509.315 549.849 514.45C539.248 518.963 527.055 522.915 517.252 528.934C509.623 533.618 507.715 543.052 505.805 551.115C496.93 553.816 488.292 557.569 479.645 560.926C478.835 542.261 483.941 526.864 496.465 512.829C500.083 508.775 504.158 505.232 508.904 502.556C514.643 499.321 520.986 497.173 527.072 494.684L556.286 482.665C565.87 478.743 575.379 473.626 585.216 470.474C589.893 468.975 594.437 468.516 599.321 468.215Z"/>
	<path fill="#053E5B" d="M510.448 287.448L510.701 287.683C511.019 288.534 510.931 288.815 510.739 289.741C509.471 295.833 507.436 301.832 505.928 307.882Q501.263 327.16 497.01 346.533C495.332 354.118 493.142 361.992 492.832 369.769C492.647 374.392 493.796 378.667 496.245 382.599C503.291 393.913 522.612 405.155 532.475 415.88C524.83 413.884 497.619 407.155 490.986 410.199C487.556 411.772 485.1 415.506 483.634 418.842C480.529 425.908 478.802 434.357 476.661 441.824Q470.411 464.156 463.503 486.293C461.69 492.073 460.128 498.196 457.895 503.812C456.947 506.195 455.925 508.268 453.469 509.308C449.088 509.059 401.86 474.618 393.683 469.194C390.203 466.451 386.923 464.163 382.753 462.549C374.646 459.411 365.427 457.987 356.95 455.934C341.094 452.093 325.392 447.946 309.306 445.154L307.322 441.133C315.118 432.052 326.352 424.919 335.861 417.624Q364.808 395.343 394.276 373.754L475.787 313.248C487.339 304.672 498.727 295.775 510.448 287.448Z"/>
	<path fill="#FEFEFE" d="M500.865 301.923C501.317 302.338 501.293 302.214 501.293 303.168C501.292 305.702 498.645 312.853 497.944 315.82C495.454 326.367 493.353 337.004 491.008 347.584C489.254 355.499 486.305 364.653 486.794 372.781C487.68 387.48 501.831 396.93 511.791 405.938C504.277 404.093 495.393 401.324 488.033 405.094C484.541 406.882 481.47 409.977 479.687 413.466C475.794 421.087 474.287 430.696 471.767 438.916L452.32 503.141C438.845 493.111 424.926 483.741 411.165 474.11C403.661 468.858 396.087 462.523 388.022 458.222C380.029 454.92 371.301 453.668 362.914 451.706C347.088 448.004 331.511 444.143 315.499 441.226C322.281 434.481 330.94 428.721 338.54 422.828Q362.411 403.979 387.001 386.076L500.865 301.923Z"/>
</svg>
